<svg width="502" height="334" viewBox="0 0 502 334" fill="none" xmlns="http://www.w3.org/2000/svg" className="cartImg">
    <g id="CartWhole">
        <path id="Cart" d="M500.36 56.869C498.511 54.054 495.37 52.359 492.002 52.359H205.888L198.724 8.84799C197.934 4.04999 193.806 0.514992 188.944 0.472992L138.759 0.0379944C138.729 0.0379944 138.699 0.0379944 138.67 0.0379944C133.188 0.0379944 128.72 4.458 128.672 9.952C128.624 15.474 133.063 19.99 138.585 20.038L180.356 20.4L187.21 62.029L139.693 266.125C125.139 270.195 114.428 283.568 114.428 299.404C114.428 318.46 129.931 333.963 148.987 333.963C165.337 333.963 179.061 322.546 182.632 307.269H355.849C359.42 322.547 373.144 333.963 389.494 333.963C408.55 333.963 424.053 318.46 424.053 299.404C424.053 280.348 408.55 264.845 389.494 264.845C374.708 264.845 362.066 274.182 357.141 287.268H181.341C177.711 277.623 169.888 270.024 160.103 266.69L164.611 247.473H416.189C420.176 247.473 423.782 245.105 425.366 241.446L501.178 66.332C502.516 63.241 502.208 59.685 500.36 56.869ZM389.494 284.846C397.521 284.846 404.053 291.377 404.053 299.405C404.053 307.433 397.522 313.964 389.494 313.964C381.466 313.964 374.935 307.433 374.935 299.405C374.935 291.377 381.467 284.846 389.494 284.846ZM163.546 299.404C163.546 307.432 157.015 313.963 148.987 313.963C140.96 313.963 134.428 307.432 134.428 299.404C134.428 291.376 140.959 284.845 148.987 284.845C157.015 284.845 163.546 291.376 163.546 299.404ZM409.621 227.474H169.31L175.082 202.628H391.63C397.152 202.628 401.63 198.151 401.63 192.628C401.63 187.105 397.152 182.628 391.63 182.628H179.728L185.004 159.917H325.428C330.95 159.917 335.428 155.44 335.428 149.917C335.428 144.394 330.95 139.917 325.428 139.917H189.65L194.926 117.207H377.749C383.271 117.207 387.749 112.73 387.749 107.207C387.749 101.684 383.271 97.207 377.749 97.207H199.572L205.344 72.361H476.774L409.621 227.474Z"/>
        <path id="Vector" d="M416.188 117.206H432.205C437.727 117.206 442.205 112.729 442.205 107.206C442.205 101.683 437.727 97.206 432.205 97.206H416.188C410.666 97.206 406.188 101.683 406.188 107.206C406.188 112.729 410.666 117.206 416.188 117.206Z"/>
        <path id="Vector_2" d="M366.003 139.916C360.481 139.916 356.003 144.393 356.003 149.916C356.003 155.439 360.481 159.916 366.003 159.916H385.224C390.746 159.916 395.224 155.439 395.224 149.916C395.224 144.393 390.746 139.916 385.224 139.916H366.003Z"/>
        <path id="Vector_3" d="M134.251 214.386C134.251 208.863 129.773 204.386 124.251 204.386H43.101C37.579 204.386 33.101 208.863 33.101 214.386C33.101 219.909 37.579 224.386 43.101 224.386H124.251C129.773 224.386 134.251 219.909 134.251 214.386Z"/>
        <path id="Vector_4" d="M62.673 130.422H143.823C149.345 130.422 153.823 125.945 153.823 120.422C153.823 114.899 149.345 110.422 143.823 110.422H62.673C57.151 110.422 52.673 114.899 52.673 120.422C52.673 125.945 57.15 130.422 62.673 130.422Z"/>
        <path id="Vector_5" d="M82.608 157.404C77.086 157.404 72.608 161.881 72.608 167.404C72.608 172.927 77.086 177.404 82.608 177.404H91.15C96.672 177.404 101.15 172.927 101.15 167.404C101.15 161.881 96.672 157.404 91.15 157.404H82.608Z"/>
        <path id="Vector_6" d="M52.033 167.404C52.033 161.881 47.555 157.404 42.033 157.404H10C4.478 157.404 0 161.881 0 167.404C0 172.927 4.478 177.404 10 177.404H42.033C47.556 177.404 52.033 172.927 52.033 167.404Z"/>
    </g>
</svg>