<svg width="535" height="517" viewBox="0 0 535 517" fill="none" xmlns="http://www.w3.org/2000/svg">
    <g id="CartIcon">
        <path id="Cart" d="M516.36 147.831C514.511 145.016 511.37 143.321 508.002 143.321H221.888L214.724 99.81C213.934 95.012 209.806 91.477 204.944 91.435L154.759 91C154.729 91 154.699 91 154.67 91C149.188 91 144.72 95.42 144.672 100.914C144.624 106.436 149.063 110.952 154.585 111L196.356 111.362L203.21 152.991L155.693 357.087C141.139 361.157 130.428 374.53 130.428 390.366C130.428 409.422 145.931 424.925 164.987 424.925C181.337 424.925 195.061 413.508 198.632 398.231H371.849C375.42 413.509 389.144 424.925 405.494 424.925C424.55 424.925 440.053 409.422 440.053 390.366C440.053 371.31 424.55 355.807 405.494 355.807C390.708 355.807 378.066 365.144 373.141 378.23H197.341C193.711 368.585 185.888 360.986 176.103 357.652L180.611 338.435H432.189C436.176 338.435 439.782 336.067 441.366 332.408L517.178 157.294C518.516 154.203 518.208 150.647 516.36 147.831ZM405.494 375.808C413.521 375.808 420.053 382.339 420.053 390.367C420.053 398.395 413.522 404.926 405.494 404.926C397.466 404.926 390.935 398.395 390.935 390.367C390.935 382.339 397.467 375.808 405.494 375.808ZM179.546 390.366C179.546 398.394 173.015 404.925 164.987 404.925C156.96 404.925 150.428 398.394 150.428 390.366C150.428 382.338 156.959 375.807 164.987 375.807C173.015 375.807 179.546 382.338 179.546 390.366ZM425.621 318.436H185.31L191.082 293.59H407.63C413.152 293.59 417.63 289.113 417.63 283.59C417.63 278.067 413.152 273.59 407.63 273.59H195.728L201.004 250.879H341.428C346.95 250.879 351.428 246.402 351.428 240.879C351.428 235.356 346.95 230.879 341.428 230.879H205.65L210.926 208.169H393.749C399.271 208.169 403.749 203.692 403.749 198.169C403.749 192.646 399.271 188.169 393.749 188.169H215.572L221.344 163.323H492.774L425.621 318.436Z"/>
        <path id="Vector" d="M432.188 208.168H448.205C453.727 208.168 458.205 203.691 458.205 198.168C458.205 192.645 453.727 188.168 448.205 188.168H432.188C426.666 188.168 422.188 192.645 422.188 198.168C422.188 203.691 426.666 208.168 432.188 208.168Z"/>
        <path id="Vector_2" d="M382.003 230.878C376.481 230.878 372.003 235.355 372.003 240.878C372.003 246.401 376.481 250.878 382.003 250.878H401.224C406.746 250.878 411.224 246.401 411.224 240.878C411.224 235.355 406.746 230.878 401.224 230.878H382.003Z"/>
        <path id="Vector_3" d="M150.251 305.348C150.251 299.825 145.773 295.348 140.251 295.348H59.101C53.579 295.348 49.101 299.825 49.101 305.348C49.101 310.871 53.579 315.348 59.101 315.348H140.251C145.773 315.348 150.251 310.871 150.251 305.348Z"/>
        <path id="Vector_4" d="M78.673 221.384H159.823C165.345 221.384 169.823 216.907 169.823 211.384C169.823 205.861 165.345 201.384 159.823 201.384H78.673C73.151 201.384 68.673 205.861 68.673 211.384C68.673 216.907 73.15 221.384 78.673 221.384Z"/>
        <path id="Vector_5" d="M98.608 248.366C93.086 248.366 88.608 252.843 88.608 258.366C88.608 263.889 93.086 268.366 98.608 268.366H107.15C112.672 268.366 117.15 263.889 117.15 258.366C117.15 252.843 112.672 248.366 107.15 248.366H98.608Z"/>
        <path id="Vector_6" d="M68.033 258.366C68.033 252.843 63.555 248.366 58.033 248.366H26C20.478 248.366 16 252.843 16 258.366C16 263.889 20.478 268.366 26 268.366H58.033C63.556 268.366 68.033 263.889 68.033 258.366Z"/>
    </g>
</svg>
