<svg width="500" height="500" viewBox="0 0 500 500" fill="none" xmlns="http://www.w3.org/2000/svg">
    <g id="Icon2">
        <path id="path20" fill-rule="evenodd" clip-rule="evenodd" d="M85.4497 331.653C106.794 372.537 139.647 379.529 157.451 414.662C132.946 378.742 92.361 383.261 85.4497 331.653ZM116.854 394.335C138.248 415.465 160.041 413.271 178.094 431.54C155.724 414.115 131.423 424.997 116.854 394.335V394.335ZM164.238 436.067C189.949 451.668 210.633 444.48 232.434 458.068C206.629 446.3 185.522 462.523 164.238 436.067V436.067ZM64.9722 337.107C69.444 358.592 83.5795 366.047 87.1766 384.437C80.6122 364.814 61.4468 361.626 64.9722 337.107ZM49.2305 275.979C54.3093 300.377 70.364 308.842 74.455 329.731C67.0007 307.447 45.23 303.833 49.2305 275.979ZM53.8682 356.093C60.8699 369.074 69.0971 381.497 78.561 393.174C80.0277 394.991 81.5171 396.77 83.029 398.518C83.8058 399.438 84.6013 400.339 85.4007 401.236C85.8494 401.741 86.2943 402.242 86.7467 402.74C87.1049 403.139 87.4631 403.531 87.8251 403.923C88.4849 404.651 89.1523 405.371 89.8197 406.083L90.3702 406.664C91.1733 407.512 91.9877 408.356 92.8021 409.197C93.2169 409.619 93.6279 410.037 94.0426 410.452C94.4989 410.915 94.9513 411.368 95.4113 411.82C96.1843 412.589 96.9572 413.35 97.7377 414.104L98.0205 414.368C119.448 434.914 144.435 450.597 171.304 461.004C192.618 469.108 214.962 473.68 237.558 474.645C281.07 477.076 324.947 467.023 363.7 444.8C377.394 436.953 390.093 427.782 401.676 417.496C412.309 407.723 421.927 396.954 430.43 385.372H416.675C411.016 392.194 404.99 398.703 398.614 404.858L398.603 404.862C390.018 413.113 380.987 420.448 371.497 426.889C367.146 429.757 362.697 432.509 358.142 435.117C356.283 436.184 354.413 437.224 352.528 438.238C335.81 446.99 317.843 453.236 298.64 456.997C274.841 461.652 249.047 451.155 228.849 437.986C213.605 429.35 201.162 420.459 191.513 411.292C185.597 404.398 179.889 400.595 174.388 399.875C166.941 395.232 161.617 389.152 158.424 381.636C155.456 377.796 152.591 374.72 149.544 372.903C136.89 365.369 137.075 355.783 146.882 361.501C148.858 363.024 150.871 364.366 152.907 365.523C154.065 366.149 155.237 366.752 156.414 367.325L156.448 367.336C164.833 371.407 184.666 378.851 192.003 379.33C197.923 379.71 194.82 379.021 200.189 381.32C202.022 382.1 203.432 382.903 204.898 382.722C209.97 387.026 212.986 391.297 213.951 395.537C208.891 403.773 206.625 411.394 207.157 418.397C209.883 409.042 212.775 403.068 215.837 400.475C219.121 407.459 223.212 415.563 228.377 421.122C237.061 431.231 248.553 438.166 261.324 440.854C249.394 437.835 238.938 430.568 231.533 420.35C225.033 410.934 224.079 406.076 218.559 394.455C215.09 387.143 211.587 382.36 208.069 380.125C216.327 382.443 221.27 384.588 224.863 386.227C263.156 403.697 245.401 436.953 330.791 436.338C290.922 431.42 278.623 430.975 258.862 408.085C259.378 407.923 259.929 407.7 260.638 407.418C269.468 405.292 273.714 405.703 276.722 407.271C282.069 410.06 284.584 414.839 299.82 418.808C305.333 420.248 309.084 418.684 312.508 417.376C327.978 420.602 344.052 419.547 359.251 414.296C345.273 417.617 330.908 417.99 316.946 415.401C319.091 414.36 321.467 413.181 324.46 411.971C336.583 407.086 350.827 402.883 362.354 400.237C354.111 401.259 334.863 405.367 323.265 409.837C302.72 417.76 294.745 413.874 288.494 408.88C267.862 392.405 261.539 409.11 249.047 395.462C247.939 394.248 246.785 393.087 245.582 391.968C257.73 394.881 270.38 395.224 282.827 392.955C303.949 389.092 312.12 383.988 334.712 391.202C316.637 384.256 302.912 385.014 284.271 388.911C267.119 392.492 249.16 390.023 230.387 381.497C226.364 379.59 222.243 377.916 218.042 376.48C213.254 375.029 208.183 374.139 202.772 374.23C188.67 372.907 176.179 368.689 164.818 362.131H164.811L164.796 362.119C161.089 359.979 157.504 357.589 154.02 354.969C150.996 352.802 148.04 350.537 145.148 348.181C117.929 342.49 94.348 325.649 80.1296 301.76C65.9073 277.874 62.3555 249.123 70.3338 222.498C85.8946 218.63 101.897 216.716 118.332 216.738C146.022 215.826 171.304 207.828 194.171 192.751C163.536 207.361 136.174 212.954 112.096 209.539C101.146 206.188 87.0672 207.15 69.855 212.419C81.1928 193.705 98.9254 179.729 119.776 173.072C98.8688 177.788 79.6281 188.07 64.0975 202.826C64.7271 182.801 73.7913 163.977 89.0543 151.004C103.295 146.918 117.054 149.161 130.33 157.721C151.795 166.808 179.316 160.732 212.892 139.489C179.112 157.577 147.274 157.423 117.371 139.007C127.502 131.208 143.342 126.892 164.894 126.052C194.307 119.987 217.986 104.956 235.93 80.9499C206.908 104.767 176.19 117.726 143.771 119.818C157.504 109.411 165.501 94.3795 167.771 74.7119C156.116 104.225 139.797 119.26 118.815 119.818C105.478 123.376 92.3157 127.575 79.383 132.392C117.174 77.2108 179.135 43.4804 246.012 41.6863C285.353 68.6284 307.309 114.514 303.606 162.036C312.301 121.536 299.406 79.4196 269.528 50.7211C319.219 62.1266 359.918 97.5946 378.005 145.245C363.323 97.1498 326.233 59.1527 278.491 43.2995C309.397 47.2346 339.018 58.0747 365.163 75.0059C416.023 99.6902 452.012 147.197 462 202.826C453.581 147.34 423.224 97.5682 377.741 64.6859C332.258 31.7998 275.467 18.5662 220.127 27.9439C147.448 38.0604 84.3299 83.1209 51.1723 148.565C24.7751 200.667 20.0318 260.423 36.7766 315.205L36.3505 315.129C40.9316 329.199 46.757 342.9 53.8342 356.025L53.8682 356.093"/>
        <g id="Leaves">
            <path id="path22" fill-rule="evenodd" clip-rule="evenodd" d="M150.924 193.588C148.304 196.75 148.154 201.292 150.57 204.624C154.414 201.65 156.634 197.041 156.566 192.175C156.495 187.316 154.135 182.771 150.208 179.91C148.998 190.87 138.372 196.46 147.332 205.344C145.945 201.055 147.381 196.358 150.924 193.588"/>
            <path id="path24" fill-rule="evenodd" clip-rule="evenodd" d="M206.135 191.444C197.801 190.23 189.701 194.817 186.448 202.585C195.755 206.143 206.192 205.107 214.62 199.8C223.044 194.489 228.483 185.518 229.293 175.59C208.838 185.164 187.715 172.537 181.741 197.685C187.753 190.69 197.5 188.194 206.135 191.444"/>
            <path id="path26" fill-rule="evenodd" clip-rule="evenodd" d="M185.397 218.239C181.884 213.957 175.921 212.589 170.893 214.922C173.841 220.771 179.366 224.899 185.812 226.056C192.261 227.213 198.872 225.268 203.667 220.809C189.491 216.388 184.832 200.897 170.78 210.451C176.803 209.72 182.646 212.83 185.397 218.239Z"/>
            <path id="path28" fill-rule="evenodd" clip-rule="evenodd" d="M161.459 225.864C161.904 221.344 159.247 217.1 154.984 215.529C153.291 220.628 154.098 226.222 157.158 230.632C160.219 235.042 165.179 237.755 170.547 237.951C164.9 227.168 171.191 215.491 157.509 212.875C161.418 215.947 162.997 221.133 161.459 225.864"/>
            <path id="path30" fill-rule="evenodd" clip-rule="evenodd" d="M174.157 182.688C170.49 187.109 170.286 193.449 173.652 198.1C179.023 193.946 182.125 187.512 182.024 180.724C181.929 173.936 178.639 167.592 173.151 163.6C171.462 178.892 156.623 186.702 169.129 199.106C167.195 193.121 169.201 186.566 174.157 182.688"/>
            <path id="path32" fill-rule="evenodd" clip-rule="evenodd" d="M128.015 173.133C124.201 171.61 119.832 172.869 117.405 176.182C121.419 178.93 126.489 179.627 131.091 178.067C135.697 176.502 139.292 172.861 140.804 168.24C130.013 170.464 121.419 162.066 115.724 173.325C119.372 170.69 124.283 170.611 128.015 173.133"/>
            <path id="path34" fill-rule="evenodd" clip-rule="evenodd" d="M101.4 165.41C99.4893 169.051 100.285 173.525 103.334 176.28C106.481 172.575 107.699 167.607 106.624 162.865C105.546 158.12 102.305 154.166 97.8647 152.18C98.9503 163.148 89.7082 170.822 100.315 177.656C98.072 173.751 98.5017 168.858 101.4 165.41"/>
            <path id="path36" fill-rule="evenodd" clip-rule="evenodd" d="M112.504 187.765C108.63 186.396 104.314 187.829 102.026 191.24C106.146 193.822 111.238 194.312 115.78 192.57C120.314 190.818 123.759 187.037 125.09 182.363C114.393 185.013 105.471 176.974 100.232 188.451C103.771 185.665 108.675 185.394 112.504 187.765Z"/>
            <path id="path38" fill-rule="evenodd" clip-rule="evenodd" d="M224.205 134.401C217.409 134.71 211.684 139.572 210.285 146.221C218.197 147.63 226.316 145.233 232.188 139.741C238.068 134.257 241.019 126.323 240.156 118.329C225.392 129.018 206.735 122.211 205.804 143.055C209.516 136.594 216.859 133.138 224.205 134.401Z"/>
            <path id="path40" fill-rule="evenodd" clip-rule="evenodd" d="M180.708 139.27C178.096 142.173 177.787 146.466 179.943 149.715C183.697 147.046 185.982 142.764 186.102 138.151C186.219 133.549 184.161 129.15 180.546 126.293C178.982 136.625 168.704 141.517 176.853 150.273C175.699 146.16 177.241 141.766 180.708 139.27Z"/>
            <path id="path42" fill-rule="evenodd" clip-rule="evenodd" d="M158.153 139.757C155.549 142.651 155.24 146.944 157.396 150.193C161.15 147.521 163.43 143.239 163.551 138.633C163.664 134.031 161.609 129.633 157.991 126.776C156.431 137.107 146.148 141.999 154.297 150.751C153.148 146.639 154.689 142.252 158.153 139.757"/>
            <path id="path44" fill-rule="evenodd" clip-rule="evenodd" d="M209.245 159.503C204.36 156.254 197.903 156.726 193.543 160.642C198.333 165.647 205.201 168.112 212.083 167.287C218.966 166.458 225.057 162.44 228.525 156.435C212.811 156.36 203.297 142.131 192.039 156.156C197.907 153.544 204.779 154.882 209.245 159.503"/>
            <path id="path46" fill-rule="evenodd" clip-rule="evenodd" d="M173.844 100.15C169.664 100.934 166.536 104.447 166.249 108.695C171.277 108.876 176.102 106.678 179.272 102.762C182.434 98.846 183.569 93.6671 182.336 88.786C174.112 96.7051 161.949 94.1156 163.192 107.123C164.926 102.792 169.185 100.007 173.844 100.15Z"/>
            <path id="path48" fill-rule="evenodd" clip-rule="evenodd" d="M177.926 80.7162C173.739 81.4964 170.61 85.0168 170.328 89.2647C175.36 89.4456 180.18 87.2482 183.346 83.332C186.513 79.4158 187.651 74.2369 186.415 69.3558C178.194 77.2749 166.027 74.6817 167.267 87.6929C169.005 83.3583 173.26 80.5729 177.926 80.7162Z"/>
            <path id="path50" fill-rule="evenodd" clip-rule="evenodd" d="M147.66 87.6553C147.456 91.9107 150.151 95.7628 154.218 97.0293C155.56 92.1783 154.539 86.9731 151.455 82.9853C148.384 79.0051 143.604 76.6983 138.572 76.7699C144.373 86.5999 139.04 97.8358 151.979 99.6375C148.172 96.9463 146.446 92.1594 147.66 87.6553"/>
            <path id="path52" fill-rule="evenodd" clip-rule="evenodd" d="M130.385 100.851C130.182 105.107 132.877 108.962 136.944 110.225C138.286 105.367 137.264 100.169 134.189 96.1849C131.105 92.1971 126.337 89.8942 121.298 89.962C127.099 99.7996 121.765 111.032 134.705 112.833C130.894 110.138 129.172 105.359 130.385 100.851Z"/>
            <path id="path54" fill-rule="evenodd" clip-rule="evenodd" d="M217.605 77.7648C217.869 83.2264 214.413 88.1753 209.189 89.7922C207.47 83.5656 208.781 76.8903 212.732 71.7756C216.678 66.6608 222.81 63.7057 229.267 63.7962C221.823 76.4154 228.672 90.8326 212.057 93.1431C216.949 89.6867 219.166 83.5467 217.605 77.7648"/>
            <path id="path56" fill-rule="evenodd" clip-rule="evenodd" d="M243.899 75.9518C240.254 76.276 237.288 79.02 236.685 82.6309C240.97 83.2075 245.282 81.73 248.317 78.643C251.351 75.5561 252.753 71.2215 252.101 66.9435C244.412 73.0307 234.223 69.8043 234.205 81.029C236.052 77.4709 239.923 75.443 243.899 75.9518Z"/>
            <path id="path58" fill-rule="evenodd" clip-rule="evenodd" d="M238.777 95.9248C235.678 93.9799 231.657 94.3832 228.996 96.8973C232.075 99.9428 236.402 101.364 240.68 100.731C244.966 100.105 248.693 97.4966 250.759 93.6897C240.951 93.9046 234.774 85.1827 227.985 94.1269C231.6 92.3969 235.916 93.1168 238.777 95.9248Z"/>
            <path id="path60" fill-rule="evenodd" clip-rule="evenodd" d="M225.358 109.516C222.26 107.572 218.23 107.971 215.581 110.493C218.649 113.531 222.98 114.955 227.261 114.326C231.54 113.693 235.275 111.084 237.337 107.278C227.533 107.496 221.355 98.7743 214.563 107.715C218.181 105.992 222.497 106.708 225.358 109.516Z"/>
            <path id="path62" fill-rule="evenodd" clip-rule="evenodd" d="M284.195 136.3C290.207 134.823 294.455 129.463 294.519 123.27C287.2 123.421 280.381 127.013 276.11 132.953C271.836 138.901 270.615 146.511 272.805 153.495C284.094 141.325 301.963 144.08 299.084 125.302C296.924 131.732 290.976 136.127 284.195 136.3Z"/>
            <path id="path64" fill-rule="evenodd" clip-rule="evenodd" d="M298.014 173.917C302.348 169.496 303.136 162.7 299.936 157.4C293.792 161.384 289.88 168.026 289.375 175.33C288.881 182.635 291.843 189.747 297.384 194.53C300.573 178.24 317.221 171.177 304.881 156.729C306.43 163.329 303.686 170.197 298.014 173.917Z"/>
            <path id="path66" fill-rule="evenodd" clip-rule="evenodd" d="M324.066 150.001C322.453 144.023 316.999 139.9 310.806 139.971C311.119 147.287 314.866 154.023 320.908 158.162C326.95 162.293 334.582 163.344 341.518 160.992C329.087 149.986 331.435 132.06 312.736 135.366C319.211 137.378 323.734 143.224 324.066 150.001"/>
            <path id="path68" fill-rule="evenodd" clip-rule="evenodd" d="M307.979 84.0895C308.107 77.9042 304.04 72.4088 298.077 70.7353C296.321 77.844 298.013 85.3597 302.646 91.0285C307.274 96.7011 314.308 99.856 321.624 99.5544C312.8 85.4954 320.109 68.9525 301.229 66.853C306.871 70.6147 309.574 77.5009 307.979 84.0895"/>
            <path id="path70" fill-rule="evenodd" clip-rule="evenodd" d="M355.766 138.841C360.356 134.683 361.551 127.952 358.675 122.467C352.302 126.071 347.997 132.467 347.059 139.726C346.116 146.986 348.653 154.264 353.892 159.371C358.053 143.303 375.094 137.258 363.658 122.094C364.804 128.781 361.645 135.467 355.766 138.841"/>
            <path id="path72" fill-rule="evenodd" clip-rule="evenodd" d="M379.602 163.928C382.527 156.511 380.066 148.053 373.613 143.364C368.313 151.162 366.994 161.004 370.058 169.921C373.115 178.839 380.194 185.797 389.161 188.703C384.792 167.781 401.015 151.068 379.153 140.088C384.291 147.152 384.468 156.673 379.602 163.928Z"/>
            <path id="path74" fill-rule="evenodd" clip-rule="evenodd" d="M390.148 124.175C385.523 119.818 378.535 119.139 373.16 122.528C377.363 128.754 384.257 132.637 391.761 133.014C399.266 133.387 406.514 130.205 411.312 124.424C394.532 121.472 386.959 104.519 372.373 117.458C379.119 115.743 386.221 118.431 390.148 124.175Z"/>
            <path id="path76" fill-rule="evenodd" clip-rule="evenodd" d="M461.409 217.907C464.337 210.493 461.876 202.031 455.423 197.346C450.124 205.144 448.808 214.982 451.865 223.9C454.922 232.818 462.008 239.776 470.975 242.682C466.606 221.759 482.829 205.046 460.96 194.067C466.097 201.13 466.278 210.655 461.409 217.907Z"/>
            <path id="path78" fill-rule="evenodd" clip-rule="evenodd" d="M443.196 195.559C448.401 194.455 452.193 189.97 452.419 184.655C446.136 184.583 440.177 187.482 436.351 192.469C432.525 197.455 431.267 203.957 432.963 210.01C442.978 199.868 458.239 202.721 456.279 186.521C454.247 191.982 449.023 195.597 443.196 195.559Z"/>
            <path id="path80" fill-rule="evenodd" clip-rule="evenodd" d="M442.091 178.617C445.627 179.966 449.63 178.753 451.82 175.662C448.088 173.189 443.407 172.616 439.189 174.117C434.975 175.617 431.711 179.02 430.376 183.294C440.293 181.108 448.31 188.718 453.406 178.278C450.082 180.754 445.559 180.89 442.091 178.617Z"/>
            <path id="path82" fill-rule="evenodd" clip-rule="evenodd" d="M317.953 120.85C314.184 120.549 310.678 122.833 309.442 126.41C313.716 127.741 318.371 126.983 321.993 124.363C325.623 121.736 327.806 117.56 327.888 113.086C318.986 117.96 309.156 112.905 307.188 124.352C309.687 121.039 313.988 119.644 317.953 120.85Z"/>
            <path id="path84" fill-rule="evenodd" clip-rule="evenodd" d="M373.013 100.938C369.24 100.636 365.739 102.924 364.502 106.497C368.777 107.832 373.428 107.066 377.058 104.447C380.687 101.824 382.866 97.6511 382.949 93.1733C374.046 98.0468 364.212 92.9924 362.245 104.436C364.747 101.13 369.048 99.7316 373.013 100.938Z"/>
            <path id="path86" fill-rule="evenodd" clip-rule="evenodd" d="M280.256 102.136C283.351 99.9579 284.587 95.9625 283.249 92.4195C279.111 94.1307 276.024 97.6851 274.908 102.023C273.796 106.358 274.787 110.968 277.588 114.458C281.312 105.02 292.111 102.623 286.298 92.5627C286.494 96.7051 284.082 100.531 280.256 102.136Z"/>
        </g>
    </g>
</svg>
