<svg width="500" height="500" viewBox="0 0 500 500" fill="none" xmlns="http://www.w3.org/2000/svg">
    <g id="Icon1">
        <path id="path156" fill-rule="evenodd" clip-rule="evenodd" d="M85.5314 331.646C106.906 372.53 139.801 379.527 157.631 414.652C133.089 378.732 92.4496 383.259 85.5314 331.646ZM116.979 394.328C138.409 415.465 160.221 413.262 178.301 431.529C155.899 414.106 131.57 424.993 116.979 394.328ZM164.428 436.068C190.174 451.664 210.892 444.473 232.722 458.066C206.873 446.299 185.742 462.515 164.428 436.068ZM65.026 337.102C69.5003 358.585 83.6589 366.037 87.2578 384.431C80.6922 364.811 61.4939 361.625 65.026 337.102ZM49.2624 275.973C54.3447 300.369 70.4244 308.835 74.5096 329.729C67.0504 307.445 45.244 303.828 49.2624 275.973ZM53.907 356.09C60.9103 369.065 69.1538 381.493 78.6314 393.175C80.0965 394.984 81.592 396.768 83.0997 398.516C83.8839 399.432 84.6802 400.336 85.4827 401.234C85.9265 401.738 86.3763 402.236 86.8322 402.739C87.1848 403.14 87.5436 403.528 87.9083 403.923C88.571 404.645 89.2336 405.361 89.9084 406.077L90.4616 406.66C91.2641 407.509 92.0787 408.359 92.8933 409.19C93.3067 409.615 93.7201 410.034 94.1335 410.453C94.5895 410.908 95.0393 411.369 95.5074 411.824C96.2734 412.583 97.0516 413.341 97.8419 414.1L98.1155 414.361C119.581 434.909 144.597 450.584 171.51 460.998C192.849 469.105 215.226 473.675 237.853 474.646C281.43 477.073 325.358 467.018 364.168 444.801C377.883 436.948 390.607 427.778 402.2 417.498C447.57 375.844 474.592 316.208 473.99 252.161V251.699C473.631 253.186 473.303 255.001 473.005 257.179C465.376 313.841 439.18 366.267 399.136 404.851L399.124 404.863C390.528 413.111 381.482 420.441 371.98 426.886C367.627 429.763 363.165 432.506 358.606 435.109C356.739 436.177 354.873 437.221 352.976 438.234C336.24 446.985 318.252 453.236 299.017 456.986C275.186 461.653 249.355 451.148 229.13 437.973C213.865 429.344 201.402 420.454 191.736 411.29C185.821 404.402 180.1 400.591 174.586 399.863C167.139 395.22 161.808 389.14 158.604 381.633C155.637 377.792 152.768 374.715 149.716 372.894C137.047 365.357 137.223 355.775 147.047 361.498C149.029 363.021 151.041 364.368 153.084 365.521C154.245 366.146 155.413 366.747 156.598 367.317L156.628 367.336C165.018 371.401 184.885 378.848 192.235 379.321C198.162 379.703 195.055 379.017 200.429 381.311C202.265 382.1 203.676 382.901 205.153 382.725C210.223 387.022 213.244 391.294 214.217 395.536C209.147 403.771 206.873 411.387 207.414 418.384C210.138 409.039 213.032 403.067 216.096 400.476C219.391 407.449 223.482 415.556 228.655 421.115C237.361 431.225 248.863 438.162 261.654 440.85C249.696 437.828 239.233 430.558 231.823 420.344C225.312 410.932 224.351 406.071 218.831 394.45C215.354 387.131 211.846 382.361 208.32 380.116C216.588 382.428 221.543 384.582 225.135 386.221C263.483 403.698 245.702 436.948 331.219 436.329C291.296 431.413 278.974 430.976 259.186 408.08C259.702 407.922 260.255 407.691 260.961 407.418C269.806 405.282 274.061 405.695 277.077 407.267C282.426 410.058 284.943 414.834 300.196 418.809C305.722 420.241 309.485 418.675 312.908 417.377C328.404 420.605 344.496 419.543 359.718 414.294C345.724 417.613 331.328 417.99 317.352 415.392C319.51 414.355 321.881 413.171 324.872 411.97C337.024 407.078 351.286 402.879 362.825 400.233C354.569 401.253 335.298 405.361 323.687 409.834C303.102 417.759 295.114 413.869 288.864 408.875C268.195 392.399 261.86 409.105 249.355 395.457C248.249 394.25 247.088 393.084 245.89 391.962C258.049 394.875 270.718 395.22 283.186 392.945C304.336 389.085 312.519 383.988 335.152 391.197C317.048 384.255 303.297 385.007 284.621 388.909C267.459 392.484 249.471 390.02 230.668 381.493C226.637 379.582 222.509 377.913 218.309 376.475C213.512 375.024 208.436 374.132 203.019 374.223C188.891 372.906 176.386 368.689 165.006 362.123L164.987 362.117C161.273 359.974 157.68 357.583 154.197 354.968C151.169 352.801 148.202 350.532 145.309 348.177C118.055 342.485 94.4435 325.651 80.2058 301.759C65.9621 277.867 62.4059 249.114 70.394 222.497C85.9752 218.632 102 216.714 118.463 216.738C146.19 215.822 171.51 207.824 194.405 192.743C163.723 207.356 136.324 212.952 112.207 209.535C101.246 206.185 87.1424 207.144 69.9137 212.418C81.2637 193.702 99.0212 179.72 119.903 173.069C98.9665 177.778 79.7013 188.058 64.1505 202.817C64.7706 182.803 73.853 163.978 89.1363 151.004C103.404 146.92 117.18 149.159 130.475 157.716C151.972 166.8 179.529 160.726 213.153 139.486C179.322 157.576 147.443 157.412 117.496 139.006C127.636 131.208 143.497 126.894 165.085 126.05C194.539 119.988 218.254 104.956 236.224 80.9485C207.159 104.768 176.398 117.718 143.935 119.805C157.68 109.41 165.693 94.3782 167.966 74.7101C156.294 104.227 139.953 119.259 118.937 119.805C105.581 123.374 92.407 127.573 79.4582 132.386C117.302 77.2103 179.347 43.4813 246.316 41.679C285.709 68.6173 307.698 114.508 303.996 162.036C312.701 121.535 299.789 79.4193 269.867 50.7211C319.626 62.13 360.381 97.5885 378.497 145.239C363.797 97.1455 326.653 59.1503 278.84 43.2932C309.795 47.2317 339.456 58.0762 365.64 75.0075C416.565 99.6822 452.609 147.193 462.61 202.817C454.184 147.345 423.782 97.5764 378.236 64.6848C332.69 31.7993 275.818 18.5639 220.394 27.9459C147.613 38.0621 84.4005 83.1272 51.2078 148.558C24.7751 200.663 20.0212 260.414 36.7878 315.201L36.3683 315.128C40.946 329.195 46.776 342.891 53.8645 356.03L53.907 356.09"/>
        <g id="Leaves">
            <path id="path158" fill-rule="evenodd" clip-rule="evenodd" d="M151.363 193.496C148.742 196.668 148.597 201.199 151.005 204.529C154.85 201.557 157.07 196.953 157.004 192.089C156.925 187.23 154.571 182.687 150.641 179.83C149.434 190.779 138.813 196.371 147.772 205.251C146.377 200.963 147.82 196.274 151.363 193.496"/>
            <path id="path160" fill-rule="evenodd" clip-rule="evenodd" d="M206.547 191.349C198.213 190.148 190.122 194.727 186.87 202.491C196.163 206.045 206.602 205.014 215.027 199.707C223.446 194.406 228.886 185.435 229.693 175.512C209.246 185.083 188.132 172.461 182.164 197.596C188.175 190.603 197.916 188.104 206.547 191.349"/>
            <path id="path162" fill-rule="evenodd" clip-rule="evenodd" d="M185.821 218.14C182.309 213.858 176.347 212.493 171.319 214.822C174.267 220.669 179.78 224.8 186.228 225.952C192.669 227.111 199.293 225.164 204.079 220.706C189.91 216.29 185.251 200.799 171.209 210.358C177.226 209.63 183.062 212.736 185.821 218.14Z"/>
            <path id="path164" fill-rule="evenodd" clip-rule="evenodd" d="M161.887 225.758C162.341 221.245 159.679 217 155.415 215.429C153.722 220.524 154.535 226.116 157.592 230.526C160.649 234.935 165.611 237.647 170.973 237.841C165.338 227.062 171.622 215.386 157.938 212.772C161.85 215.847 163.427 221.033 161.887 225.758"/>
            <path id="path166" fill-rule="evenodd" clip-rule="evenodd" d="M174.581 182.608C170.924 187.024 170.718 193.369 174.078 198.009C179.446 193.86 182.552 187.424 182.448 180.637C182.351 173.862 179.064 167.517 173.581 163.532C171.888 178.811 157.058 186.618 169.559 199.016C167.624 193.035 169.632 186.484 174.581 182.608Z"/>
            <path id="path168" fill-rule="evenodd" clip-rule="evenodd" d="M128.466 173.049C124.65 171.533 120.283 172.794 117.863 176.112C121.872 178.854 126.937 179.545 131.541 177.987C136.144 176.428 139.735 172.788 141.252 168.166C130.455 170.38 121.872 161.998 116.177 173.243C119.828 170.611 124.735 170.538 128.466 173.049"/>
            <path id="path170" fill-rule="evenodd" clip-rule="evenodd" d="M101.868 165.334C99.9573 168.973 100.752 173.449 103.797 176.197C106.939 172.497 108.158 167.536 107.084 162.792C106.005 158.055 102.772 154.094 98.3317 152.111C99.4114 163.077 90.1858 170.744 100.77 177.574C98.532 173.674 98.9687 168.779 101.868 165.334Z"/>
            <path id="path172" fill-rule="evenodd" clip-rule="evenodd" d="M112.968 187.679C109.092 186.308 104.78 187.746 102.487 191.155C106.605 193.732 111.694 194.224 116.231 192.477C120.768 190.736 124.22 186.957 125.536 182.287C114.848 184.925 105.938 176.895 100.691 188.365C104.234 185.587 109.141 185.308 112.968 187.679"/>
            <path id="path174" fill-rule="evenodd" clip-rule="evenodd" d="M224.605 134.345C217.817 134.649 212.091 139.513 210.69 146.161C218.6 147.568 226.715 145.166 232.593 139.677C238.464 134.2 241.412 126.272 240.551 118.284C225.793 128.959 207.148 122.154 206.214 142.989C209.92 136.535 217.265 133.078 224.605 134.345"/>
            <path id="path176" fill-rule="evenodd" clip-rule="evenodd" d="M181.126 139.216C178.524 142.115 178.215 146.403 180.362 149.648C184.123 146.974 186.403 142.697 186.525 138.094C186.634 133.49 184.578 129.099 180.963 126.242C179.404 136.565 169.129 141.46 177.275 150.206C176.128 146.094 177.663 141.703 181.126 139.216Z"/>
            <path id="path178" fill-rule="evenodd" clip-rule="evenodd" d="M158.587 139.695C155.985 142.594 155.676 146.877 157.829 150.134C161.578 147.459 163.864 143.183 163.986 138.573C164.095 133.969 162.045 129.578 158.424 126.721C156.865 137.05 146.59 141.933 154.736 150.68C153.589 146.573 155.124 142.188 158.587 139.695Z"/>
            <path id="path180" fill-rule="evenodd" clip-rule="evenodd" d="M209.653 159.426C204.776 156.181 198.316 156.654 193.961 160.566C198.747 165.577 205.607 168.039 212.491 167.214C219.37 166.383 225.453 162.368 228.923 156.369C213.213 156.29 203.708 142.067 192.451 156.084C198.316 153.482 205.188 154.816 209.653 159.426Z"/>
            <path id="path182" fill-rule="evenodd" clip-rule="evenodd" d="M174.272 100.112C170.093 100.894 166.957 104.406 166.678 108.652C171.706 108.834 176.534 106.638 179.694 102.726C182.855 98.8076 183.989 93.6337 182.758 88.751C174.539 96.6725 162.383 94.0826 163.621 107.087C165.355 102.756 169.613 99.9661 174.272 100.112"/>
            <path id="path184" fill-rule="evenodd" clip-rule="evenodd" d="M178.354 80.6837C174.169 81.4662 171.039 84.9781 170.754 89.2239C175.777 89.412 180.605 87.2163 183.771 83.2979C186.937 79.3918 188.065 74.2118 186.84 69.3352C178.621 77.2446 166.46 74.6546 167.697 87.6591C169.438 83.3283 173.69 80.5442 178.354 80.6837"/>
            <path id="path186" fill-rule="evenodd" clip-rule="evenodd" d="M148.1 87.6228C147.894 91.8747 150.593 95.7263 154.657 96.988C155.997 92.1416 154.972 86.9375 151.897 82.9585C148.822 78.9674 144.048 76.6685 139.014 76.7474C144.818 86.5674 139.487 97.7947 152.419 99.5961C148.609 96.9091 146.893 92.1234 148.1 87.6228"/>
            <path id="path188" fill-rule="evenodd" clip-rule="evenodd" d="M130.837 100.815C130.625 105.061 133.33 108.919 137.394 110.18C138.734 105.328 137.703 100.124 134.634 96.1448C131.559 92.1659 126.779 89.861 121.751 89.9338C127.556 99.7538 122.224 110.993 135.156 112.789C131.347 110.095 129.624 105.31 130.837 100.815"/>
            <path id="path190" fill-rule="evenodd" clip-rule="evenodd" d="M218.011 77.7361C218.278 83.195 214.814 88.1445 209.598 89.764C207.882 83.5348 209.192 76.8627 213.14 71.7555C217.089 66.6363 223.215 63.6824 229.669 63.7794C222.227 76.3896 229.069 90.7951 212.467 93.1C217.356 89.6548 219.57 83.5165 218.011 77.7361"/>
            <path id="path192" fill-rule="evenodd" clip-rule="evenodd" d="M244.288 75.9285C240.648 76.2439 237.676 78.9916 237.082 82.6005C241.37 83.1767 245.677 81.6968 248.709 78.6094C251.742 75.5282 253.143 71.1974 252.494 66.9212C244.797 73.0049 234.619 69.7781 234.595 80.9993C236.439 77.4388 240.315 75.419 244.288 75.9285"/>
            <path id="path194" fill-rule="evenodd" clip-rule="evenodd" d="M239.168 95.8839C236.068 93.943 232.047 94.3433 229.396 96.8605C232.465 99.9054 236.796 101.325 241.072 100.694C245.349 100.063 249.085 97.4549 251.147 93.6518C241.345 93.8641 235.171 85.148 228.383 94.0886C231.998 92.366 236.311 93.0817 239.168 95.8839"/>
            <path id="path196" fill-rule="evenodd" clip-rule="evenodd" d="M225.762 109.471C222.663 107.53 218.642 107.924 215.979 110.441C219.054 113.492 223.385 114.905 227.661 114.274C231.943 113.644 235.674 111.042 237.736 107.238C227.928 107.445 221.753 98.7346 214.966 107.669C218.587 105.953 222.9 106.662 225.762 109.471"/>
            <path id="path198" fill-rule="evenodd" clip-rule="evenodd" d="M284.562 136.244C290.573 134.77 294.819 129.402 294.886 123.227C287.571 123.373 280.753 126.951 276.483 132.902C272.219 138.834 270.994 146.44 273.19 153.421C284.465 141.266 302.322 144.014 299.447 125.253C297.288 131.676 291.344 136.068 284.562 136.244Z"/>
            <path id="path200" fill-rule="evenodd" clip-rule="evenodd" d="M298.379 173.838C302.71 169.416 303.493 162.629 300.296 157.333C294.158 161.312 290.245 167.954 289.748 175.251C289.245 182.548 292.205 189.663 297.749 194.442C300.927 178.156 317.571 171.102 305.24 156.66C306.786 163.253 304.045 170.126 298.379 173.838Z"/>
            <path id="path202" fill-rule="evenodd" clip-rule="evenodd" d="M324.413 149.94C322.805 143.959 317.346 139.841 311.166 139.913C311.481 147.216 315.217 153.955 321.259 158.092C327.294 162.222 334.924 163.272 341.857 160.918C329.441 149.921 331.788 131.998 313.088 135.304C319.56 137.317 324.085 143.164 324.413 149.94"/>
            <path id="path204" fill-rule="evenodd" clip-rule="evenodd" d="M308.339 84.0562C308.467 77.8755 304.397 72.3862 298.434 70.7061C296.681 77.8148 298.374 85.3299 303.008 90.9891C307.636 96.6603 314.66 99.8204 321.975 99.5172C313.155 85.4634 320.458 68.9289 301.588 66.8302C307.229 70.5847 309.922 77.4751 308.339 84.0562"/>
            <path id="path206" fill-rule="evenodd" clip-rule="evenodd" d="M356.099 138.779C360.685 134.624 361.88 127.898 359.011 122.414C352.636 126.017 348.341 132.404 347.401 139.665C346.455 146.919 348.984 154.192 354.231 159.305C358.386 143.243 375.418 137.202 363.984 122.044C365.137 128.723 361.977 135.407 356.099 138.779"/>
            <path id="path208" fill-rule="evenodd" clip-rule="evenodd" d="M379.925 163.854C382.842 156.442 380.386 147.987 373.938 143.304C368.643 151.104 367.326 160.93 370.39 169.847C373.434 178.763 380.513 185.714 389.478 188.619C385.111 167.705 401.33 150.995 379.47 140.029C384.607 147.089 384.783 156.606 379.925 163.854Z"/>
            <path id="path210" fill-rule="evenodd" clip-rule="evenodd" d="M390.467 124.119C385.839 119.77 378.857 119.091 373.483 122.469C377.687 128.698 384.577 132.58 392.074 132.956C399.577 133.326 406.82 130.148 411.624 124.374C394.852 121.42 387.276 104.479 372.695 117.41C379.44 115.694 386.536 118.381 390.467 124.119Z"/>
            <path id="path212" fill-rule="evenodd" clip-rule="evenodd" d="M461.688 217.806C464.618 210.394 462.155 201.945 455.707 197.257C450.406 205.051 449.09 214.889 452.147 223.793C455.204 232.709 462.283 239.667 471.247 242.572C466.88 221.658 483.093 204.954 461.239 193.981C466.377 201.041 466.559 210.558 461.688 217.806"/>
            <path id="path214" fill-rule="evenodd" clip-rule="evenodd" d="M443.491 195.467C448.684 194.363 452.481 189.881 452.705 184.574C446.421 184.501 440.465 187.394 436.644 192.38C432.822 197.36 431.567 203.862 433.259 209.909C443.261 199.774 458.522 202.631 456.563 186.442C454.537 191.895 449.308 195.504 443.491 195.467"/>
            <path id="path216" fill-rule="evenodd" clip-rule="evenodd" d="M442.382 178.538C445.918 179.885 449.915 178.672 452.105 175.585C448.381 173.116 443.698 172.546 439.482 174.038C435.273 175.542 432.004 178.939 430.675 183.215C440.58 181.019 448.593 188.638 453.694 178.199C450.37 180.674 445.845 180.813 442.382 178.538Z"/>
            <path id="path218" fill-rule="evenodd" clip-rule="evenodd" d="M318.305 120.807C314.538 120.498 311.038 122.79 309.795 126.363C314.071 127.685 318.724 126.927 322.345 124.307C325.978 121.687 328.155 117.507 328.234 113.037C319.336 117.914 309.516 112.855 307.551 124.301C310.05 120.989 314.344 119.594 318.305 120.807"/>
            <path id="path220" fill-rule="evenodd" clip-rule="evenodd" d="M373.337 100.9C369.565 100.597 366.065 102.883 364.828 106.462C369.11 107.784 373.75 107.026 377.377 104.406C381.01 101.786 383.182 97.6065 383.267 93.1362C374.363 98.0068 364.542 92.9482 362.577 104.394C365.076 101.088 369.371 99.687 373.337 100.9"/>
            <path id="path222" fill-rule="evenodd" clip-rule="evenodd" d="M280.632 102.095C283.719 99.9174 284.95 95.9202 283.616 92.3841C279.485 94.0885 276.398 97.6489 275.282 101.986C274.166 106.317 275.16 110.92 277.963 114.414C281.681 104.982 292.478 102.58 286.667 92.5296C286.861 96.6724 284.447 100.488 280.632 102.095Z"/>
        </g>
    </g>
</svg>
