<svg viewBox="0 0 500 500" fill="none" xmlns="http://www.w3.org/2000/svg">
    <g id="Minus">
        <path class="border" d="M150 25H350C396.146 25 426.164 36.5197 444.822 55.1777C463.48 73.8357 475 103.854 475 150V350C475 396.146 463.48 426.164 444.822 444.822C426.164 463.48 396.146 475 350 475H25.045C25.0448 475 25.0446 475 25.0444 475C25.0369 474.993 25.0292 474.986 25.0214 474.979C25.0137 474.971 25.0066 474.963 25.0005 474.956C25.0003 474.955 25.0002 474.955 25 474.955V150C25 103.854 36.5197 73.8357 55.1777 55.1777C73.8357 36.5197 103.854 25 150 25Z" stroke-width="50" stroke-linecap="round" stroke-linejoin="round"/>
        <path class="icon" d="M162 250H338" stroke-width="50" stroke-miterlimit="10" stroke-linecap="round" stroke-linejoin="round"/>
    </g>
</svg>
