<svg viewBox="0 0 500 500" fill="none" xmlns="http://www.w3.org/2000/svg">
    <g id="Plus">
        <path class="border" d="M350 475L150 475C103.854 475 73.8357 463.48 55.1777 444.822C36.5197 426.164 25 396.146 25 350L25 150C25 103.854 36.5197 73.8357 55.1777 55.1777C73.8357 36.5197 103.854 25 150 25L474.955 25C474.955 25.0002 474.955 25.0003 474.956 25.0005C474.963 25.0067 474.971 25.0137 474.979 25.0214C474.986 25.0291 474.993 25.0369 475 25.0444C475 25.0446 475 25.0448 475 25.045L475 350C475 396.146 463.48 426.164 444.822 444.822C426.164 463.48 396.146 475 350 475Z" stroke-width="50" stroke-linecap="round" stroke-linejoin="round"/>
        <path class="icon" d="M250 338V162M162 250H338" stroke-width="50" stroke-miterlimit="10" stroke-linecap="round" stroke-linejoin="round"/>
    </g>
</svg>
